<svg width="50" height="36" viewBox="0 0 50 36" fill="none" xmlns="http://www.w3.org/2000/svg">
<path d="M31.8182 22.5C25.75 22.5 13.6364 25.4925 13.6364 31.5V36H50V31.5C50 25.4925 37.8864 22.5 31.8182 22.5ZM11.3636 13.5V6.75H6.81818V13.5H0V18H6.81818V24.75H11.3636V18H18.1818V13.5M31.8182 18C34.2292 18 36.5415 17.0518 38.2464 15.364C39.9513 13.6761 40.9091 11.3869 40.9091 9C40.9091 6.61305 39.9513 4.32387 38.2464 2.63604C36.5415 0.948211 34.2292 0 31.8182 0C29.4071 0 27.0948 0.948211 25.3899 2.63604C23.6851 4.32387 22.7273 6.61305 22.7273 9C22.7273 11.3869 23.6851 13.6761 25.3899 15.364C27.0948 17.0518 29.4071 18 31.8182 18Z" fill="white"/>
</svg>
