<svg width="22" height="22" viewBox="0 0 26 26" fill="none" xmlns="http://www.w3.org/2000/svg">
<path d="M20.8604 19.2022C21.0806 19.4224 21.2043 19.721 21.2043 20.0323C21.2043 20.3436 21.0806 20.6422 20.8604 20.8624C20.6403 21.0825 20.3417 21.2062 20.0304 21.2062C19.719 21.2062 19.4204 21.0825 19.2003 20.8624L13.0001 14.6602L6.79793 20.8604C6.57778 21.0806 6.27919 21.2043 5.96785 21.2043C5.65651 21.2043 5.35793 21.0806 5.13778 20.8604C4.91762 20.6403 4.79395 20.3417 4.79395 20.0304C4.79395 19.719 4.91762 19.4204 5.13778 19.2003L11.3399 13.0001L5.13973 6.79793C4.91958 6.57778 4.7959 6.27919 4.7959 5.96785C4.7959 5.65651 4.91958 5.35793 5.13973 5.13777C5.35988 4.91762 5.65847 4.79395 5.96981 4.79395C6.28115 4.79395 6.57973 4.91762 6.79988 5.13777L13.0001 11.3399L19.2022 5.1368C19.4224 4.91665 19.721 4.79297 20.0323 4.79297C20.3436 4.79297 20.6422 4.91665 20.8624 5.1368C21.0825 5.35695 21.2062 5.65554 21.2062 5.96688C21.2062 6.27822 21.0825 6.5768 20.8624 6.79695L14.6602 13.0001L20.8604 19.2022Z" fill="white"/>
</svg>
