<svg width="139" height="139" viewBox="0 0 139 139" fill="none" xmlns="http://www.w3.org/2000/svg">
<path d="M104.25 20.8496C107.936 20.8496 111.472 22.3141 114.078 24.9208C116.685 27.5276 118.15 31.0631 118.15 34.7496V66.7196C115.928 65.5831 113.6 64.6682 111.2 63.9883V34.7496C111.2 32.9064 110.467 31.1386 109.164 29.8352C107.861 28.5318 106.093 27.7996 104.25 27.7996C102.406 27.7996 100.639 28.5318 99.3352 29.8352C98.0318 31.1386 97.2996 32.9064 97.2996 34.7496V62.7025C94.9481 62.9147 92.6214 63.3452 90.3496 63.9883V34.7496C90.3496 31.0631 91.8141 27.5276 94.4208 24.9208C97.0276 22.3141 100.563 20.8496 104.25 20.8496ZM63.0153 106.752C63.6338 110.678 64.8431 114.404 66.5598 117.837C63.4555 117.165 60.6748 115.45 58.6807 112.978C56.6866 110.506 55.5992 107.426 55.5996 104.25V55.5996C55.5996 51.9131 57.0641 48.3776 59.6708 45.7708C62.2776 43.1641 65.8131 41.6996 69.4996 41.6996C73.1861 41.6996 76.7216 43.1641 79.3284 45.7708C81.9351 48.3776 83.3996 51.9131 83.3996 55.5996V66.7196C80.9239 67.9845 78.5934 69.5156 76.4496 71.2858V55.5996C76.4496 53.7564 75.7174 51.9886 74.414 50.6852C73.1106 49.3818 71.3429 48.6496 69.4996 48.6496C67.6564 48.6496 65.8886 49.3818 64.5852 50.6852C63.2818 51.9886 62.5496 53.7564 62.5496 55.5996V104.25C62.5496 105.132 62.7164 105.98 63.0153 106.752ZM34.7496 62.5496C38.4361 62.5496 41.9716 64.0141 44.5784 66.6208C47.1851 69.2276 48.6496 72.7631 48.6496 76.4496V104.25C48.6496 107.936 47.1851 111.472 44.5784 114.078C41.9716 116.685 38.4361 118.15 34.7496 118.15C31.0631 118.15 27.5276 116.685 24.9208 114.078C22.3141 111.472 20.8496 107.936 20.8496 104.25V76.4496C20.8496 72.7631 22.3141 69.2276 24.9208 66.6208C27.5276 64.0141 31.0631 62.5496 34.7496 62.5496ZM41.6996 76.4496C41.6996 74.6064 40.9674 72.8386 39.664 71.5352C38.3606 70.2318 36.5929 69.4996 34.7496 69.4996C32.9064 69.4996 31.1386 70.2318 29.8352 71.5352C28.5318 72.8386 27.7996 74.6064 27.7996 76.4496V104.25C27.7996 106.093 28.5318 107.861 29.8352 109.164C31.1386 110.467 32.9064 111.2 34.7496 111.2C36.5929 111.2 38.3606 110.467 39.664 109.164C40.9674 107.861 41.6996 106.093 41.6996 104.25V76.4496ZM132.05 100.775C132.05 109.069 128.755 117.024 122.889 122.889C117.024 128.755 109.069 132.05 100.775 132.05C92.48 132.05 84.525 128.755 78.6598 122.889C72.7946 117.024 69.4996 109.069 69.4996 100.775C69.4996 92.48 72.7946 84.525 78.6598 78.6598C84.525 72.7946 92.48 69.4996 100.775 69.4996C109.069 69.4996 117.024 72.7946 122.889 78.6598C128.755 84.525 132.05 92.48 132.05 100.775ZM104.25 86.8746C104.25 85.953 103.883 85.0691 103.232 84.4174C102.58 83.7657 101.696 83.3996 100.775 83.3996C99.853 83.3996 98.9691 83.7657 98.3174 84.4174C97.6657 85.0691 97.2996 85.953 97.2996 86.8746V97.2996H86.8746C85.953 97.2996 85.0691 97.6657 84.4174 98.3174C83.7657 98.9691 83.3996 99.853 83.3996 100.775C83.3996 101.696 83.7657 102.58 84.4174 103.232C85.0691 103.883 85.953 104.25 86.8746 104.25H97.2996V114.675C97.2996 115.596 97.6657 116.48 98.3174 117.132C98.9691 117.783 99.853 118.15 100.775 118.15C101.696 118.15 102.58 117.783 103.232 117.132C103.883 116.48 104.25 115.596 104.25 114.675V104.25H114.675C115.596 104.25 116.48 103.883 117.132 103.232C117.783 102.58 118.15 101.696 118.15 100.775C118.15 99.853 117.783 98.9691 117.132 98.3174C116.48 97.6657 115.596 97.2996 114.675 97.2996H104.25V86.8746Z" fill="#191F2F"/>
</svg>
