<svg width="103" height="103" viewBox="0 0 103 103" fill="none" xmlns="http://www.w3.org/2000/svg">
<path d="M46.5973 41.4477C43.4584 44.5866 39.2012 46.35 34.7621 46.35C30.323 46.35 26.0658 44.5866 22.9269 41.4477C19.788 38.3088 18.0246 34.0516 18.0246 29.6125C18.0246 25.1734 19.788 20.9162 22.9269 17.7773C26.0658 14.6384 30.323 12.875 34.7621 12.875C39.2012 12.875 43.4584 14.6384 46.5973 17.7773C49.7362 20.9162 51.4996 25.1734 51.4996 29.6125C51.4996 34.0516 49.7362 38.3088 46.5973 41.4477Z" fill="#191F2F"/>
<path d="M83.7786 42.579C86.1931 40.1645 87.5496 36.8897 87.5496 33.475C87.5496 30.0603 86.1931 26.7855 83.7786 24.371C81.3641 21.9565 78.0893 20.6 74.6746 20.6C71.26 20.6 67.9851 21.9565 65.5706 24.371C63.1561 26.7855 61.7996 30.0603 61.7996 33.475C61.7996 36.8897 63.1561 40.1645 65.5706 42.579C67.9851 44.9935 71.26 46.35 74.6746 46.35C78.0893 46.35 81.3641 44.9935 83.7786 42.579Z" fill="#191F2F"/>
<path d="M56.6136 52.8545C50.3409 58.0508 46.3496 65.8994 46.3496 74.675C46.3484 76.6707 46.5573 78.661 46.9728 80.613C43.6871 81.7202 39.6701 82.4 34.7621 82.4C7.72461 82.4 7.72461 61.8 7.72461 61.8C7.72461 59.0683 8.80978 56.4484 10.7414 54.5168C12.673 52.5852 15.2929 51.5 18.0246 51.5H51.4996C53.2934 51.4964 55.0567 51.9634 56.6136 52.8545Z" fill="#191F2F"/>
<path d="M74.25 88H78.75V76.75H90V72.25H78.75V61H74.25V72.25H63V76.75H74.25V88ZM76.5 97C70.275 97 64.9695 94.8055 60.5835 90.4165C56.1975 86.0275 54.003 80.722 54 74.5C54 68.275 56.1945 62.9695 60.5835 58.5835C64.9725 54.1975 70.278 52.003 76.5 52C82.725 52 88.032 54.1945 92.421 58.5835C96.81 62.9725 99.003 68.278 99 74.5C99 80.725 96.8055 86.032 92.4165 90.421C88.0275 94.81 82.722 97.003 76.5 97Z" fill="#191F2F"/>
</svg>
