<svg width="21" height="21" viewBox="0 0 21 21" fill="none" xmlns="http://www.w3.org/2000/svg">
<path d="M16.6145 1.7605L19.2395 4.3855L17.2384 6.3875L14.6134 3.7625L16.6145 1.7605ZM7 14H9.625L16.0011 7.62387L13.3761 4.99887L7 11.375V14Z" fill="#646464"/>
<path d="M16.625 16.625H7.13825C7.1155 16.625 7.09188 16.6337 7.06913 16.6337C7.04025 16.6337 7.01137 16.6259 6.98163 16.625H4.375V4.375H10.3661L12.1161 2.625H4.375C3.40987 2.625 2.625 3.409 2.625 4.375V16.625C2.625 17.591 3.40987 18.375 4.375 18.375H16.625C17.0891 18.375 17.5342 18.1906 17.8624 17.8624C18.1906 17.5342 18.375 17.0891 18.375 16.625V9.0405L16.625 10.7905V16.625Z" fill="#646464"/>
</svg>
