<svg width="22" height="22" viewBox="0 0 22 22" fill="none" xmlns="http://www.w3.org/2000/svg">
<path d="M17.1145 2.2605L19.7395 4.8855L17.7384 6.8875L15.1134 4.2625L17.1145 2.2605ZM7.5 14.5H10.125L16.5011 8.12387L13.8761 5.49887L7.5 11.875V14.5Z" fill="white"/>
<path d="M17.125 17.125H7.63825C7.6155 17.125 7.59188 17.1337 7.56913 17.1337C7.54025 17.1337 7.51137 17.1259 7.48163 17.125H4.875V4.875H10.8661L12.6161 3.125H4.875C3.90987 3.125 3.125 3.909 3.125 4.875V17.125C3.125 18.091 3.90987 18.875 4.875 18.875H17.125C17.5891 18.875 18.0342 18.6906 18.3624 18.3624C18.6906 18.0342 18.875 17.5891 18.875 17.125V9.5405L17.125 11.2905V17.125Z" fill="white"/>
</svg>
