<svg width="126" height="126" viewBox="0 0 126 126" fill="none" xmlns="http://www.w3.org/2000/svg">
<path d="M91.875 110.25H97.125V97.125H110.25V91.875H97.125V78.75H91.875V91.875H78.75V97.125H91.875V110.25ZM94.5 120.75C87.2375 120.75 81.0478 118.19 75.9308 113.069C70.8138 107.949 68.2535 101.759 68.25 94.5C68.25 87.2375 70.8103 81.0478 75.9308 75.9308C81.0513 70.8138 87.241 68.2535 94.5 68.25C101.762 68.25 107.954 70.8103 113.075 75.9308C118.195 81.0513 120.754 87.241 120.75 94.5C120.75 101.762 118.19 107.954 113.069 113.075C107.949 118.195 101.759 120.754 94.5 120.75ZM36.75 47.25H89.25V36.75H36.75V47.25ZM61.2938 110.25H26.25C23.3625 110.25 20.8915 109.223 18.837 107.168C16.7825 105.114 15.7535 102.641 15.75 99.75V26.25C15.75 23.3625 16.779 20.8915 18.837 18.837C20.895 16.7825 23.366 15.7535 26.25 15.75H99.75C102.637 15.75 105.11 16.779 107.168 18.837C109.226 20.895 110.254 23.366 110.25 26.25V61.425C107.713 60.2 105.152 59.2812 102.569 58.6688C99.9863 58.0563 97.2965 57.75 94.5 57.75C93.5375 57.75 92.6397 57.771 91.8067 57.813C90.9737 57.855 90.1215 57.9652 89.25 58.1437V57.75H36.75V68.25H68.9062C67.3312 69.7375 65.9102 71.3563 64.6432 73.1063C63.3763 74.8563 62.2598 76.7375 61.2938 78.75H36.75V89.25H58.1437C57.9688 90.125 57.8602 90.979 57.8182 91.812C57.7762 92.645 57.7535 93.541 57.75 94.5C57.75 97.3875 58.0125 100.079 58.5375 102.575C59.0625 105.07 59.9813 107.629 61.2938 110.25Z" fill="#191F2F"/>
</svg>
