<svg width="107" height="107" viewBox="0 0 107 107" fill="none" xmlns="http://www.w3.org/2000/svg">
<path d="M58.4726 14.9344C56.4434 10.8149 50.5699 10.8149 48.5369 14.9344L38.2534 35.7688L15.2599 39.1125C10.7162 39.7736 8.901 45.3567 12.1874 48.5629L28.8298 64.7811L24.9013 87.6829C24.1256 92.2113 28.8756 95.662 32.9416 93.522L50.3176 84.3888C49.1825 79.142 49.5437 73.6818 51.3602 68.6302C53.1767 63.5786 55.7843 58.8224 60.0009 55.5C64.2175 52.1776 69.8735 50.4225 75.2098 49.838C80.5461 49.2535 85.9393 50.1795 90.7751 52.5105L94.8258 48.5629C98.1123 45.3567 96.3009 39.7736 91.7534 39.1125L68.7599 35.7688L58.4726 14.9344Z" fill="#191F2F"/>
<path d="M75.25 90H79.75V78.75H91V74.25H79.75V63H75.25V74.25H64V78.75H75.25V90ZM77.5 99C71.275 99 65.9695 96.8055 61.5835 92.4165C57.1975 88.0275 55.003 82.722 55 76.5C55 70.275 57.1945 64.9695 61.5835 60.5835C65.9725 56.1975 71.278 54.003 77.5 54C83.725 54 89.032 56.1945 93.421 60.5835C97.81 64.9725 100.003 70.278 100 76.5C100 82.725 97.8055 88.032 93.4165 92.421C89.0275 96.81 83.722 99.003 77.5 99Z" fill="#191F2F"/>
</svg>
