<svg width="26" height="26" viewBox="0 0 31 32" fill="none" xmlns="http://www.w3.org/2000/svg">
<g clip-path="url(#clip0_1609_2690)">
<path d="M26.3577 21.614C24.9741 20.1149 23.2949 18.9184 21.4261 18.1001C19.5573 17.2818 17.5393 16.8594 15.4991 16.8594C13.459 16.8594 11.441 17.2818 9.57215 18.1001C7.70333 18.9184 6.0242 20.1149 4.64052 21.614C4.42689 21.8503 4.30739 22.1567 4.30469 22.4752V27.6418C4.30922 27.9814 4.4473 28.3055 4.68904 28.5441C4.93079 28.7826 5.25675 28.9163 5.59635 28.9163H25.4019C25.7445 28.9163 26.073 28.7802 26.3153 28.5379C26.5575 28.2957 26.6936 27.9672 26.6936 27.6246V22.4579C26.6867 22.1454 26.5675 21.8458 26.3577 21.614Z" fill="white"/>
<path d="M15.5004 15.1386C18.8295 15.1386 21.5282 12.4398 21.5282 9.11079C21.5282 5.78174 18.8295 3.08301 15.5004 3.08301C12.1714 3.08301 9.47266 5.78174 9.47266 9.11079C9.47266 12.4398 12.1714 15.1386 15.5004 15.1386Z" fill="white"/>
</g>
<defs>
<clipPath id="clip0_1609_2690">
<rect width="31" height="31" fill="white" transform="translate(0 0.5)"/>
</clipPath>
</defs>
</svg>
