<svg width="17" height="16" viewBox="0 0 17 16" fill="none" xmlns="http://www.w3.org/2000/svg">
<path d="M7.31252 14C7.31252 14.2984 7.43763 14.5845 7.66033 14.7955C7.88303 15.0065 8.18508 15.125 8.50002 15.125C8.81497 15.125 9.11701 15.0065 9.33971 14.7955C9.56241 14.5845 9.68752 14.2984 9.68752 14V9.125H14.8334C15.1483 9.125 15.4503 9.00647 15.673 8.7955C15.8957 8.58452 16.0209 8.29837 16.0209 8C16.0209 7.70163 15.8957 7.41548 15.673 7.2045C15.4503 6.99353 15.1483 6.875 14.8334 6.875H9.68752V2C9.68752 1.70163 9.56241 1.41548 9.33971 1.2045C9.11701 0.993526 8.81497 0.875 8.50002 0.875C8.18508 0.875 7.88303 0.993526 7.66033 1.2045C7.43763 1.41548 7.31252 1.70163 7.31252 2V6.875H2.16669C1.85174 6.875 1.5497 6.99353 1.327 7.2045C1.1043 7.41548 0.979187 7.70163 0.979187 8C0.979187 8.29837 1.1043 8.58452 1.327 8.7955C1.5497 9.00647 1.85174 9.125 2.16669 9.125H7.31252V14Z" fill="white"/>
</svg>
