<svg width="105" height="105" viewBox="0 0 105 105" fill="none" xmlns="http://www.w3.org/2000/svg">
<path d="M47.25 10.5C41.6805 10.5 36.339 12.7125 32.4008 16.6508C28.4625 20.589 26.25 25.9305 26.25 31.5C26.25 37.0695 28.4625 42.411 32.4008 46.3492C36.339 50.2875 41.6805 52.5 47.25 52.5C52.8195 52.5 58.161 50.2875 62.0992 46.3492C66.0375 42.411 68.25 37.0695 68.25 31.5C68.25 25.9305 66.0375 20.589 62.0992 16.6508C58.161 12.7125 52.8195 10.5 47.25 10.5ZM21.0472 57.75C19.6646 57.7445 18.2944 58.0119 17.0154 58.5371C15.7363 59.0622 14.5735 59.8347 13.5936 60.8102C12.6137 61.7857 11.836 62.945 11.3052 64.2217C10.7743 65.4984 10.5007 66.8673 10.5 68.25C10.5 77.1277 14.8733 83.8215 21.7088 88.1843C28.4393 92.4735 37.5112 94.5 47.25 94.5C49.4025 94.5 51.534 94.4003 53.6025 94.2008C49.4809 89.0789 47.2388 82.6993 47.25 76.125C47.25 69.1425 49.728 62.7375 53.8493 57.75H21.0472Z" fill="#191F2F"/>
<path d="M74.25 90H78.75V78.75H90V74.25H78.75V63H74.25V74.25H63V78.75H74.25V90ZM76.5 99C70.275 99 64.9695 96.8055 60.5835 92.4165C56.1975 88.0275 54.003 82.722 54 76.5C54 70.275 56.1945 64.9695 60.5835 60.5835C64.9725 56.1975 70.278 54.003 76.5 54C82.725 54 88.032 56.1945 92.421 60.5835C96.81 64.9725 99.003 70.278 99 76.5C99 82.725 96.8055 88.032 92.4165 92.421C88.0275 96.81 82.722 99.003 76.5 99Z" fill="#191F2F"/>
</svg>
