<svg width="17" height="18" viewBox="0 0 17 18" fill="none" xmlns="http://www.w3.org/2000/svg">
<path d="M13.8833 15.375L9.42083 10.9125C9.06667 11.1958 8.65937 11.4201 8.19896 11.5854C7.73854 11.7507 7.24861 11.8333 6.72917 11.8333C5.44236 11.8333 4.35342 11.3876 3.46233 10.496C2.57125 9.60444 2.12547 8.5155 2.125 7.22917C2.125 5.94236 2.57078 4.85342 3.46233 3.96233C4.35389 3.07125 5.44283 2.62547 6.72917 2.625C8.01597 2.625 9.10515 3.07078 9.99671 3.96233C10.8883 4.85389 11.3338 5.94283 11.3333 7.22917C11.3333 7.74861 11.2507 8.23854 11.0854 8.69896C10.9201 9.15937 10.6958 9.56667 10.4125 9.92083L14.875 14.3833L13.8833 15.375ZM6.72917 10.4167C7.61458 10.4167 8.36731 10.1069 8.98733 9.48733C9.60736 8.86778 9.91714 8.11506 9.91667 7.22917C9.91667 6.34375 9.60689 5.59126 8.98733 4.97171C8.36778 4.35215 7.61506 4.04214 6.72917 4.04167C5.84375 4.04167 5.09126 4.35168 4.47171 4.97171C3.85215 5.59174 3.54214 6.34422 3.54167 7.22917C3.54167 8.11458 3.85168 8.86731 4.47171 9.48733C5.09174 10.1074 5.84422 10.4171 6.72917 10.4167Z" fill="#95999D"/>
</svg>
