<svg width="26" height="26" viewBox="0 0 26 26" fill="none" xmlns="http://www.w3.org/2000/svg">
<path d="M13 0C16.4478 0 19.7544 1.36964 22.1924 3.80761C24.6304 6.24558 26 9.55219 26 13C26 16.4478 24.6304 19.7544 22.1924 22.1924C19.7544 24.6304 16.4478 26 13 26C9.55219 26 6.24558 24.6304 3.80761 22.1924C1.36964 19.7544 0 16.4478 0 13C0 9.55219 1.36964 6.24558 3.80761 3.80761C6.24558 1.36964 9.55219 0 13 0ZM11.3806 15.5647L8.49271 12.675C8.38919 12.5715 8.26628 12.4893 8.13101 12.4333C7.99575 12.3773 7.85077 12.3485 7.70436 12.3485C7.55795 12.3485 7.41297 12.3773 7.2777 12.4333C7.14243 12.4893 7.01953 12.5715 6.916 12.675C6.70691 12.8841 6.58945 13.1677 6.58945 13.4634C6.58945 13.759 6.70691 14.0426 6.916 14.2517L10.5931 17.9289C10.6964 18.0329 10.8192 18.1155 10.9545 18.1718C11.0898 18.2282 11.2349 18.2572 11.3815 18.2572C11.5281 18.2572 11.6732 18.2282 11.8085 18.1718C11.9438 18.1155 12.0666 18.0329 12.1699 17.9289L19.7841 10.3127C19.8891 10.2096 19.9725 10.0868 20.0297 9.95125C20.0869 9.81573 20.1167 9.67023 20.1174 9.52314C20.1181 9.37605 20.0896 9.23028 20.0337 9.09424C19.9778 8.9582 19.8954 8.83458 19.7915 8.73051C19.6876 8.62644 19.564 8.54397 19.4281 8.48788C19.2921 8.43179 19.1463 8.40317 18.9992 8.40368C18.8522 8.40419 18.7066 8.43382 18.571 8.49086C18.4355 8.54789 18.3125 8.63121 18.2093 8.736L11.3806 15.5647Z" fill="#008000"/>
</svg>
