<svg width="28" height="28" viewBox="0 0 28 28" fill="none" xmlns="http://www.w3.org/2000/svg">
<g clip-path="url(#clip0_1609_2672)">
<path d="M9.33319 12.5532H8.65653C7.73312 12.5199 6.8127 12.6766 5.95239 13.0138C5.09209 13.3509 4.31026 13.8613 3.65542 14.5132L3.46875 14.731V21.171H6.64208V17.5155L7.06986 17.0332L7.26431 16.8077C8.27691 15.7674 9.53758 15.0019 10.9276 14.5832C10.2317 14.0537 9.68279 13.3548 9.33319 12.5532Z" fill="white"/>
<path d="M24.3751 14.4898C23.7203 13.8379 22.9385 13.3275 22.0782 12.9903C21.2179 12.6532 20.2974 12.4964 19.374 12.5298C19.0908 12.5306 18.8078 12.5462 18.5263 12.5765C18.1701 13.3285 17.6362 13.9825 16.9707 14.482C18.4547 14.8926 19.799 15.6991 20.8596 16.8153L21.054 17.0331L21.474 17.5153V21.1787H24.5385V14.7076L24.3751 14.4898Z" fill="white"/>
<path d="M8.63389 11.0362H8.875C8.76297 10.0743 8.93175 9.10048 9.36098 8.23237C9.7902 7.36426 10.4615 6.63894 11.2939 6.14397C10.9922 5.68302 10.5759 5.30833 10.0858 5.05659C9.5958 4.80486 9.04878 4.6847 8.49835 4.7079C7.94791 4.7311 7.41294 4.89684 6.94581 5.18892C6.47868 5.48099 6.09542 5.88937 5.83354 6.37407C5.57166 6.85877 5.44016 7.40318 5.45189 7.95397C5.46363 8.50477 5.61822 9.04308 5.90051 9.51618C6.1828 9.98928 6.58312 10.381 7.06227 10.6529C7.54141 10.9248 8.08296 11.0676 8.63389 11.0673V11.0362Z" fill="white"/>
<path d="M19.0014 10.4531C19.0109 10.6318 19.0109 10.811 19.0014 10.9897C19.1507 11.0134 19.3014 11.0264 19.4526 11.0286H19.6003C20.1488 10.9994 20.6804 10.8286 21.1433 10.5329C21.6062 10.2372 21.9847 9.82674 22.2419 9.34139C22.499 8.85603 22.6261 8.31235 22.6108 7.76329C22.5955 7.21422 22.4383 6.67848 22.1544 6.20822C21.8706 5.73796 21.4698 5.3492 20.9912 5.0798C20.5125 4.81039 19.9722 4.66953 19.4229 4.67091C18.8737 4.67229 18.3341 4.81587 17.8568 5.08768C17.3795 5.35949 16.9807 5.75026 16.6992 6.22194C17.4032 6.68156 17.982 7.30873 18.3838 8.04721C18.7857 8.78568 18.9979 9.61235 19.0014 10.4531Z" fill="white"/>
<path d="M13.8985 13.9377C15.8187 13.9377 17.3752 12.3812 17.3752 10.461C17.3752 8.54093 15.8187 6.98438 13.8985 6.98438C11.9784 6.98438 10.4219 8.54093 10.4219 10.461C10.4219 12.3812 11.9784 13.9377 13.8985 13.9377Z" fill="white"/>
<path d="M14.0858 15.7892C13.07 15.7482 12.0565 15.9131 11.1061 16.274C10.1558 16.6349 9.28826 17.1843 8.55577 17.8892L8.36133 18.107V23.0303C8.36436 23.1907 8.39896 23.3489 8.46315 23.4959C8.52734 23.6429 8.61986 23.7758 8.73542 23.887C8.85098 23.9982 8.98733 24.0856 9.13666 24.1441C9.286 24.2027 9.44541 24.2312 9.60577 24.2281H18.5424C18.7028 24.2312 18.8622 24.2027 19.0115 24.1441C19.1609 24.0856 19.2972 23.9982 19.4128 23.887C19.5284 23.7758 19.6209 23.6429 19.6851 23.4959C19.7492 23.3489 19.7838 23.1907 19.7869 23.0303V18.1225L19.6002 17.8892C18.8725 17.1821 18.008 16.6312 17.0597 16.2701C16.1115 15.9089 15.0995 15.7453 14.0858 15.7892Z" fill="white"/>
</g>
<defs>
<clipPath id="clip0_1609_2672">
<rect width="28" height="28" fill="white"/>
</clipPath>
</defs>
</svg>
