<svg width="139" height="139" viewBox="0 0 139 139" fill="none" xmlns="http://www.w3.org/2000/svg">
<path d="M104.25 20.85C107.937 20.85 111.472 22.3144 114.079 24.9212C116.686 27.5279 118.15 31.0635 118.15 34.75V66.72C115.929 65.5835 113.601 64.6686 111.2 63.9886V34.75C111.2 32.9067 110.468 31.139 109.164 29.8356C107.861 28.5322 106.093 27.8 104.25 27.8C102.407 27.8 100.639 28.5322 99.3357 29.8356C98.0323 31.139 97.3001 32.9067 97.3001 34.75V62.7029C94.9486 62.9151 92.6219 63.3455 90.3501 63.9886V34.75C90.3501 31.0635 91.8146 27.5279 94.4213 24.9212C97.0281 22.3144 100.564 20.85 104.25 20.85ZM63.0158 106.752C63.6343 110.679 64.8436 114.404 66.5602 117.837C63.4559 117.165 60.6753 115.451 58.6812 112.979C56.6871 110.507 55.5997 107.426 55.6001 104.25V55.6C55.6001 51.9135 57.0646 48.3779 59.6713 45.7712C62.2781 43.1644 65.8136 41.7 69.5001 41.7C73.1866 41.7 76.7221 43.1644 79.3289 45.7712C81.9356 48.3779 83.4001 51.9135 83.4001 55.6V66.72C80.9244 67.9849 78.5939 69.516 76.4501 71.2861V55.6C76.4501 53.7567 75.7179 51.989 74.4145 50.6856C73.1111 49.3822 71.3433 48.65 69.5001 48.65C67.6568 48.65 65.8891 49.3822 64.5857 50.6856C63.2823 51.989 62.5501 53.7567 62.5501 55.6V104.25C62.5501 105.133 62.7169 105.981 63.0158 106.752ZM34.7501 62.55C38.4366 62.55 41.9721 64.0144 44.5789 66.6212C47.1856 69.2279 48.6501 72.7635 48.6501 76.45V104.25C48.6501 107.936 47.1856 111.472 44.5789 114.079C41.9721 116.686 38.4366 118.15 34.7501 118.15C31.0636 118.15 27.5281 116.686 24.9213 114.079C22.3146 111.472 20.8501 107.936 20.8501 104.25V76.45C20.8501 72.7635 22.3146 69.2279 24.9213 66.6212C27.5281 64.0144 31.0636 62.55 34.7501 62.55ZM41.7001 76.45C41.7001 74.6067 40.9679 72.839 39.6645 71.5356C38.3611 70.2322 36.5934 69.5 34.7501 69.5C32.9068 69.5 31.1391 70.2322 29.8357 71.5356C28.5323 72.839 27.8001 74.6067 27.8001 76.45V104.25C27.8001 106.093 28.5323 107.861 29.8357 109.164C31.1391 110.468 32.9068 111.2 34.7501 111.2C36.5934 111.2 38.3611 110.468 39.6645 109.164C40.9679 107.861 41.7001 106.093 41.7001 104.25V76.45ZM132.05 100.775C132.05 109.07 128.755 117.025 122.89 122.89C117.025 128.755 109.07 132.05 100.775 132.05C92.4805 132.05 84.5255 128.755 78.6603 122.89C72.7951 117.025 69.5001 109.07 69.5001 100.775C69.5001 92.4803 72.7951 84.5254 78.6603 78.6602C84.5255 72.795 92.4805 69.5 100.775 69.5C109.07 69.5 117.025 72.795 122.89 78.6602C128.755 84.5254 132.05 92.4803 132.05 100.775ZM104.25 86.875C104.25 85.9533 103.884 85.0695 103.232 84.4178C102.581 83.7661 101.697 83.4 100.775 83.4C99.8535 83.4 98.9696 83.7661 98.3179 84.4178C97.6662 85.0695 97.3001 85.9533 97.3001 86.875V97.3H86.8751C85.9535 97.3 85.0696 97.6661 84.4179 98.3178C83.7662 98.9695 83.4001 99.8533 83.4001 100.775C83.4001 101.697 83.7662 102.58 84.4179 103.232C85.0696 103.884 85.9535 104.25 86.8751 104.25H97.3001V114.675C97.3001 115.597 97.6662 116.48 98.3179 117.132C98.9696 117.784 99.8535 118.15 100.775 118.15C101.697 118.15 102.581 117.784 103.232 117.132C103.884 116.48 104.25 115.597 104.25 114.675V104.25H114.675C115.597 104.25 116.481 103.884 117.132 103.232C117.784 102.58 118.15 101.697 118.15 100.775C118.15 99.8533 117.784 98.9695 117.132 98.3178C116.481 97.6661 115.597 97.3 114.675 97.3H104.25V86.875Z" fill="#191F2F"/>
</svg>
