<svg width="103" height="103" viewBox="0 0 103 103" fill="none" xmlns="http://www.w3.org/2000/svg">
<path d="M46.5978 41.4477C43.4589 44.5866 39.2017 46.35 34.7626 46.35C30.3235 46.35 26.0663 44.5866 22.9274 41.4477C19.7885 38.3088 18.0251 34.0516 18.0251 29.6125C18.0251 25.1734 19.7885 20.9162 22.9274 17.7773C26.0663 14.6384 30.3235 12.875 34.7626 12.875C39.2017 12.875 43.4589 14.6384 46.5978 17.7773C49.7367 20.9162 51.5001 25.1734 51.5001 29.6125C51.5001 34.0516 49.7367 38.3088 46.5978 41.4477Z" fill="#191F2F"/>
<path d="M83.7791 42.579C86.1936 40.1645 87.5501 36.8897 87.5501 33.475C87.5501 30.0603 86.1936 26.7855 83.7791 24.371C81.3646 21.9565 78.0898 20.6 74.6751 20.6C71.2604 20.6 67.9856 21.9565 65.5711 24.371C63.1566 26.7855 61.8001 30.0603 61.8001 33.475C61.8001 36.8897 63.1566 40.1645 65.5711 42.579C67.9856 44.9935 71.2604 46.35 74.6751 46.35C78.0898 46.35 81.3646 44.9935 83.7791 42.579Z" fill="#191F2F"/>
<path d="M56.614 52.8545C50.3413 58.0508 46.3501 65.8994 46.3501 74.675C46.3489 76.6707 46.5578 78.661 46.9733 80.613C43.6875 81.7202 39.6705 82.4 34.7626 82.4C7.7251 82.4 7.7251 61.8 7.7251 61.8C7.7251 59.0683 8.81027 56.4484 10.7419 54.5168C12.6735 52.5852 15.2934 51.5 18.0251 51.5H51.5001C53.2939 51.4964 55.0572 51.9634 56.614 52.8545Z" fill="#191F2F"/>
<path d="M74.25 88H78.75V76.75H90V72.25H78.75V61H74.25V72.25H63V76.75H74.25V88ZM76.5 97C70.275 97 64.9695 94.8055 60.5835 90.4165C56.1975 86.0275 54.003 80.722 54 74.5C54 68.275 56.1945 62.9695 60.5835 58.5835C64.9725 54.1975 70.278 52.003 76.5 52C82.725 52 88.032 54.1945 92.421 58.5835C96.81 62.9725 99.003 68.278 99 74.5C99 80.725 96.8055 86.032 92.4165 90.421C88.0275 94.81 82.722 97.003 76.5 97Z" fill="#191F2F"/>
</svg>
