<svg width="107" height="107" viewBox="0 0 107 107" fill="none" xmlns="http://www.w3.org/2000/svg">
<path d="M58.4716 14.9341C56.4424 10.8146 50.5689 10.8146 48.5359 14.9341L38.2524 35.7686L15.2589 39.1123C10.7152 39.7734 8.90002 45.3565 12.1865 48.5627L28.8288 64.7809L24.9003 87.6827C24.1246 92.2111 28.8746 95.6618 32.9406 93.5218L50.3167 84.3886C49.1815 79.1418 49.5428 73.6816 51.3592 68.63C53.1757 63.5784 55.7834 58.8222 59.9999 55.4998C64.2165 52.1774 69.8725 50.4223 75.2088 49.8378C80.5452 49.2533 85.9384 50.1793 90.7741 52.5102L94.8248 48.5627C98.1113 45.3565 96.2999 39.7734 91.7524 39.1123L68.7589 35.7686L58.4716 14.9341Z" fill="#191F2F"/>
<path d="M75.25 90H79.75V78.75H91V74.25H79.75V63H75.25V74.25H64V78.75H75.25V90ZM77.5 99C71.275 99 65.9695 96.8055 61.5835 92.4165C57.1975 88.0275 55.003 82.722 55 76.5C55 70.275 57.1945 64.9695 61.5835 60.5835C65.9725 56.1975 71.278 54.003 77.5 54C83.725 54 89.032 56.1945 93.421 60.5835C97.81 64.9725 100.003 70.278 100 76.5C100 82.725 97.8055 88.032 93.4165 92.421C89.0275 96.81 83.722 99.003 77.5 99Z" fill="#191F2F"/>
</svg>
