<svg width="28" height="20" viewBox="0 0 28 20" fill="none" xmlns="http://www.w3.org/2000/svg">
<g filter="url(#filter0_d_144_48)">
<path d="M23 2.44118H5C4.73478 2.44118 4.48043 2.33892 4.29289 2.1569C4.10536 1.97488 4 1.728 4 1.47059C4 1.21317 4.10536 0.966299 4.29289 0.784279C4.48043 0.602258 4.73478 0.5 5 0.5H23C23.2652 0.5 23.5196 0.602258 23.7071 0.784279C23.8946 0.966299 24 1.21317 24 1.47059C24 1.728 23.8946 1.97488 23.7071 2.1569C23.5196 2.33892 23.2652 2.44118 23 2.44118ZM19.6667 6.97059H8.33333C8.06812 6.97059 7.81376 6.86833 7.62623 6.68631C7.43869 6.50429 7.33333 6.25742 7.33333 6C7.33333 5.74258 7.43869 5.49571 7.62623 5.31369C7.81376 5.13167 8.06812 5.02941 8.33333 5.02941H19.6667C19.9319 5.02941 20.1862 5.13167 20.3738 5.31369C20.5613 5.49571 20.6667 5.74258 20.6667 6C20.6667 6.25742 20.5613 6.50429 20.3738 6.68631C20.1862 6.86833 19.9319 6.97059 19.6667 6.97059ZM15.6667 11.5H12.3333C12.0681 11.5 11.8138 11.3977 11.6262 11.2157C11.4387 11.0337 11.3333 10.7868 11.3333 10.5294C11.3333 10.272 11.4387 10.0251 11.6262 9.8431C11.8138 9.66108 12.0681 9.55882 12.3333 9.55882H15.6667C15.9319 9.55882 16.1862 9.66108 16.3738 9.8431C16.5613 10.0251 16.6667 10.272 16.6667 10.5294C16.6667 10.7868 16.5613 11.0337 16.3738 11.2157C16.1862 11.3977 15.9319 11.5 15.6667 11.5Z" fill="#0C1662"/>
</g>
<defs>
<filter id="filter0_d_144_48" x="0" y="0.5" width="28" height="19" filterUnits="userSpaceOnUse" color-interpolation-filters="sRGB">
<feFlood flood-opacity="0" result="BackgroundImageFix"/>
<feColorMatrix in="SourceAlpha" type="matrix" values="0 0 0 0 0 0 0 0 0 0 0 0 0 0 0 0 0 0 127 0" result="hardAlpha"/>
<feOffset dy="4"/>
<feGaussianBlur stdDeviation="2"/>
<feComposite in2="hardAlpha" operator="out"/>
<feColorMatrix type="matrix" values="0 0 0 0 0 0 0 0 0 0 0 0 0 0 0 0 0 0 0.25 0"/>
<feBlend mode="normal" in2="BackgroundImageFix" result="effect1_dropShadow_144_48"/>
<feBlend mode="normal" in="SourceGraphic" in2="effect1_dropShadow_144_48" result="shape"/>
</filter>
</defs>
</svg>
