<svg width="81" height="29" viewBox="0 0 81 29" fill="none" xmlns="http://www.w3.org/2000/svg">
<path d="M16.88 14.24C16.88 11.92 16.8667 10.4 16.84 9.68C16.7867 8.58667 16.64 7.8 16.4 7.32C16.16 6.81333 15.7733 6.50667 15.24 6.4C14.7067 6.32 13.9467 6.28 12.96 6.28C11.8133 6.28 11.0667 6.33333 10.72 6.44V0.199998C10.96 0.173332 11.32 0.159998 11.8 0.159998H12.96C15.9467 0.159998 18.2533 0.399999 19.88 0.879999C21.5333 1.33333 22.7333 2.09333 23.48 3.16C24.1733 4.14666 24.6 5.44 24.76 7.04C24.9467 8.64 25.04 11.04 25.04 14.24C25.04 17.04 24.9733 19.2 24.84 20.72C24.7333 22.2133 24.44 23.4533 23.96 24.44C23.4267 25.56 22.6 26.4133 21.48 27C20.3867 27.5867 18.8533 27.9733 16.88 28.16V14.24ZM12.96 28.32C9.06667 28.32 6.26667 27.8933 4.56 27.04C3.68 26.6133 2.98667 26.04 2.48 25.32C1.97333 24.6 1.6 23.7067 1.36 22.64C1.14667 21.7067 1.01333 20.64 0.96 19.44C0.906667 18.2133 0.88 16.48 0.88 14.24C0.88 11.44 0.933333 9.29333 1.04 7.8C1.17333 6.30667 1.48 5.05333 1.96 4.04C2.49333 2.94666 3.30667 2.10666 4.4 1.52C5.49333 0.933332 7.04 0.533333 9.04 0.319999V14.24C9.04 15.8133 9.06667 17.32 9.12 18.76C9.17333 19.8533 9.30667 20.6533 9.52 21.16C9.76 21.6667 10.1467 21.96 10.68 22.04C11.1333 22.1467 11.8933 22.2 12.96 22.2C14.0533 22.2 14.8 22.16 15.2 22.08V28.28C14.96 28.3067 14.6 28.32 14.12 28.32H12.96ZM29.5297 0.479999H37.5297V28H29.5297V0.479999ZM39.2097 18.36V9.76L45.5297 0.479999H54.2497L44.7697 13.44L54.3697 28H45.4097L39.2097 18.36ZM56.8344 0.479999H64.8344V28H56.8344V0.479999ZM68.1144 18.64H66.5144V12.52H67.8744C68.701 12.52 69.3277 12.4933 69.7544 12.44C70.181 12.36 70.5144 12.2267 70.7544 12.04C70.9677 11.8533 71.1144 11.5733 71.1944 11.2C71.2744 10.8267 71.3144 10.28 71.3144 9.56C71.3144 8.84 71.2744 8.29333 71.1944 7.92C71.1144 7.52 70.9677 7.22667 70.7544 7.04C70.541 6.85333 70.221 6.73333 69.7944 6.68C69.3944 6.62667 68.7544 6.6 67.8744 6.6H66.5144V0.479999H70.6344C72.5277 0.479999 74.061 0.666666 75.2344 1.04C76.4077 1.41333 77.3144 1.98667 77.9544 2.76C78.541 3.48 78.9277 4.37333 79.1144 5.44C79.3277 6.50667 79.4344 7.88 79.4344 9.56C79.4344 11.72 79.2344 13.3867 78.8344 14.56C78.2744 16.0533 77.2877 17.1067 75.8744 17.72L80.0344 28H71.6344L68.1144 18.64Z" fill="#0C1662"/>
</svg>
